<?xml version="1.0" encoding="utf-8"?>
<!-- Generator: Adobe Illustrator 22.1.0, SVG Export Plug-In . SVG Version: 6.00 Build 0)  -->
<svg version="1.1" id="Layer_1" xmlns="http://www.w3.org/2000/svg" xmlns:xlink="http://www.w3.org/1999/xlink" x="0px" y="0px"
	 viewBox="0 0 1920 160" style="enable-background:new 0 0 1920 160;" xml:space="preserve">
<style type="text/css">
	.st0{fill:none;stroke:#C7C7C7;stroke-width:1.001;stroke-linecap:round;stroke-miterlimit:10;}
</style>
<g transform="scale(1,1)">
</g>
<path class="st0" d="M-0.5,80L-0.5,80"/>
<path class="st0" d="M1.5,80L1.5,80"/>
<path class="st0" d="M3.5,79.8v0.3"/>
<path class="st0" d="M5.5,79.8v0.3"/>
<path class="st0" d="M7.5,79.8v0.3"/>
<path class="st0" d="M9.5,79.7v0.5"/>
<path class="st0" d="M11.5,79.7v0.5"/>
<path class="st0" d="M13.5,79.7v0.6"/>
<path class="st0" d="M15.5,79.7v0.6"/>
<path class="st0" d="M17.5,79.7v0.6"/>
<path class="st0" d="M19.5,28.4v103.2"/>
<path class="st0" d="M21.5,28.4v103.2"/>
<path class="st0" d="M23.5,28.4v103.2"/>
<path class="st0" d="M25.5,46.3v67.5"/>
<path class="st0" d="M27.5,46.3v67.5"/>
<path class="st0" d="M29.5,46.3v67.5"/>
<path class="st0" d="M31.5,60.8v38.3"/>
<path class="st0" d="M33.5,60.8v38.3"/>
<path class="st0" d="M35.5,60.8v38.3"/>
<path class="st0" d="M37.5,53.8v52.4"/>
<path class="st0" d="M39.5,53.8v52.4"/>
<path class="st0" d="M41.5,65.8v28.4"/>
<path class="st0" d="M43.5,65.8v28.4"/>
<path class="st0" d="M45.5,65.8v28.4"/>
<path class="st0" d="M47.5,67.1v25.7"/>
<path class="st0" d="M49.6,67.1v25.7"/>
<path class="st0" d="M51.6,67.1v25.7"/>
<path class="st0" d="M53.6,71V89"/>
<path class="st0" d="M55.6,71V89"/>
<path class="st0" d="M57.6,71V89"/>
<path class="st0" d="M59.6,71.9v16.2"/>
<path class="st0" d="M61.6,71.9v16.2"/>
<path class="st0" d="M63.6,58.6v42.8"/>
<path class="st0" d="M65.6,58.6v42.8"/>
<path class="st0" d="M67.6,58.6v42.8"/>
<path class="st0" d="M69.6,29.5v101"/>
<path class="st0" d="M71.6,29.5v101"/>
<path class="st0" d="M73.6,29.5v101"/>
<path class="st0" d="M75.6,54.9v50.1"/>
<path class="st0" d="M77.6,43.4v73.1"/>
<path class="st0" d="M79.6,43.4v73.1"/>
<path class="st0" d="M81.6,43.4v73.1"/>
<path class="st0" d="M83.6,34V126"/>
<path class="st0" d="M85.6,34V126"/>
<path class="st0" d="M87.6,34V126"/>
<path class="st0" d="M89.6,56.9v46.3"/>
<path class="st0" d="M91.6,56.9v46.3"/>
<path class="st0" d="M93.6,56.9v46.3"/>
<path class="st0" d="M95.6,50.7v58.5"/>
<path class="st0" d="M97.6,50.7v58.5"/>
<path class="st0" d="M99.6,50.7v58.5"/>
<path class="st0" d="M101.6,60.3v39.5"/>
<path class="st0" d="M103.6,60.3v39.5"/>
<path class="st0" d="M105.6,67V93"/>
<path class="st0" d="M107.6,67V93"/>
<path class="st0" d="M109.6,67V93"/>
<path class="st0" d="M111.6,61.4v37.2"/>
<path class="st0" d="M113.6,61.4v37.2"/>
<path class="st0" d="M115.6,61.4v37.2"/>
<path class="st0" d="M117.6,67.3v25.5"/>
<path class="st0" d="M119.6,67.3v25.5"/>
<path class="st0" d="M121.6,67.3v25.5"/>
<path class="st0" d="M123.6,68.1v23.8"/>
<path class="st0" d="M125.6,68.1v23.8"/>
<path class="st0" d="M127.6,41.2v77.7"/>
<path class="st0" d="M129.6,41.2v77.7"/>
<path class="st0" d="M131.6,41.2v77.7"/>
<path class="st0" d="M133.6,51.2v57.7"/>
<path class="st0" d="M135.6,51.2v57.7"/>
<path class="st0" d="M137.6,51.2v57.7"/>
<path class="st0" d="M139.6,58.5v43"/>
<path class="st0" d="M141.6,58.5v43"/>
<path class="st0" d="M143.6,58.5v43"/>
<path class="st0" d="M145.7,34.3v91.5"/>
<path class="st0" d="M147.7,34.3v91.5"/>
<path class="st0" d="M149.7,34.3v91.5"/>
<path class="st0" d="M151.7,54.1v51.7"/>
<path class="st0" d="M153.7,54.1v51.7"/>
<path class="st0" d="M155.7,61.6v36.9"/>
<path class="st0" d="M157.7,61.6v36.9"/>
<path class="st0" d="M159.7,61.6v36.9"/>
<path class="st0" d="M161.7,41.2v77.7"/>
<path class="st0" d="M163.7,41.2v77.7"/>
<path class="st0" d="M165.7,41.2v77.7"/>
<path class="st0" d="M167.7,65.6v28.8"/>
<path class="st0" d="M169.7,65.6v28.8"/>
<path class="st0" d="M171.7,65.6v28.8"/>
<path class="st0" d="M173.7,45.4v69.1"/>
<path class="st0" d="M175.7,45.4v69.1"/>
<path class="st0" d="M177.7,45.4v69.1"/>
<path class="st0" d="M179.7,13.5v132.9"/>
<path class="st0" d="M181.7,13.5v132.9"/>
<path class="st0" d="M183.7,36.8v86.4"/>
<path class="st0" d="M185.7,36.8v86.4"/>
<path class="st0" d="M187.7,36.8v86.4"/>
<path class="st0" d="M189.7,48.6v62.7"/>
<path class="st0" d="M191.7,48.6v62.7"/>
<path class="st0" d="M193.7,48.6v62.7"/>
<path class="st0" d="M195.7,50.8v58.4"/>
<path class="st0" d="M197.7,50.8v58.4"/>
<path class="st0" d="M199.7,50.8v58.4"/>
<path class="st0" d="M201.7,55.8v48.4"/>
<path class="st0" d="M203.7,55.8v48.4"/>
<path class="st0" d="M205.7,47.9v64.2"/>
<path class="st0" d="M207.7,47.9v64.2"/>
<path class="st0" d="M209.7,47.9v64.2"/>
<path class="st0" d="M211.7,44.1v71.8"/>
<path class="st0" d="M213.7,44.1v71.8"/>
<path class="st0" d="M215.7,44.1v71.8"/>
<path class="st0" d="M217.7,49.8v60.5"/>
<path class="st0" d="M219.7,49.8v60.5"/>
<path class="st0" d="M221.7,49.8v60.5"/>
<path class="st0" d="M223.7,46.8v66.4"/>
<path class="st0" d="M225.7,46.8v66.4"/>
<path class="st0" d="M227.7,46.8v66.4"/>
<path class="st0" d="M229.7,47.1v65.8"/>
<path class="st0" d="M231.7,47.1v65.8"/>
<path class="st0" d="M233.7,44.8v70.4"/>
<path class="st0" d="M235.7,44.8v70.4"/>
<path class="st0" d="M237.7,44.8v70.4"/>
<path class="st0" d="M239.7,10.4v139.2"/>
<path class="st0" d="M241.8,10.4v139.2"/>
<path class="st0" d="M243.8,10.4v139.2"/>
<path class="st0" d="M245.8,22v116"/>
<path class="st0" d="M247.8,22v116"/>
<path class="st0" d="M249.8,22v116"/>
<path class="st0" d="M251.8,39.8v80.4"/>
<path class="st0" d="M253.8,39.8v80.4"/>
<path class="st0" d="M255.8,42.5v75.1"/>
<path class="st0" d="M257.8,42.5v75.1"/>
<path class="st0" d="M259.8,42.5v75.1"/>
<path class="st0" d="M261.8,49.4v61.3"/>
<path class="st0" d="M263.8,49.4v61.3"/>
<path class="st0" d="M265.8,49.4v61.3"/>
<path class="st0" d="M267.8,56.5v47"/>
<path class="st0" d="M269.8,56.5v47"/>
<path class="st0" d="M271.8,56.5v47"/>
<path class="st0" d="M273.8,44.4v71.3"/>
<path class="st0" d="M275.8,44.4v71.3"/>
<path class="st0" d="M277.8,44.4v71.3"/>
<path class="st0" d="M279.8,46.8v66.5"/>
<path class="st0" d="M281.8,46.8v66.5"/>
<path class="st0" d="M283.8,46.5v67"/>
<path class="st0" d="M285.8,46.5v67"/>
<path class="st0" d="M287.8,46.5v67"/>
<path class="st0" d="M289.8,54.6v50.7"/>
<path class="st0" d="M291.8,54.6v50.7"/>
<path class="st0" d="M293.8,54.6v50.7"/>
<path class="st0" d="M295.8,56.3v47.3"/>
<path class="st0" d="M297.8,56.3v47.3"/>
<path class="st0" d="M299.8,41.5v77"/>
<path class="st0" d="M301.8,41.5v77"/>
<path class="st0" d="M303.8,41.5v77"/>
<path class="st0" d="M305.8,18.5v123"/>
<path class="st0" d="M307.8,18.5v123"/>
<path class="st0" d="M309.8,33.7v92.6"/>
<path class="st0" d="M311.8,33.7v92.6"/>
<path class="st0" d="M313.8,33.7v92.6"/>
<path class="st0" d="M315.8,47.9v64.3"/>
<path class="st0" d="M317.8,47.9v64.3"/>
<path class="st0" d="M319.8,47.9v64.3"/>
<path class="st0" d="M321.8,53.7v52.5"/>
<path class="st0" d="M323.8,53.7v52.5"/>
<path class="st0" d="M325.8,53.7v52.5"/>
<path class="st0" d="M327.8,50.6v58.8"/>
<path class="st0" d="M329.8,50.6v58.8"/>
<path class="st0" d="M331.8,39.3v81.5"/>
<path class="st0" d="M333.8,39.3v81.5"/>
<path class="st0" d="M335.8,39.3v81.5"/>
<path class="st0" d="M337.9,42.3v75.5"/>
<path class="st0" d="M339.9,42.3v75.5"/>
<path class="st0" d="M341.9,42.3v75.5"/>
<path class="st0" d="M343.9,44.3v71.5"/>
<path class="st0" d="M345.9,44.3v71.5"/>
<path class="st0" d="M347.9,44.3v71.5"/>
<path class="st0" d="M349.9,47.9v64.1"/>
<path class="st0" d="M351.9,47.9v64.1"/>
<path class="st0" d="M353.9,47.9v64.1"/>
<path class="st0" d="M355.9,51.5v56.9"/>
<path class="st0" d="M357.9,51.5v56.9"/>
<path class="st0" d="M359.9,35.3v89.4"/>
<path class="st0" d="M361.9,35.3v89.4"/>
<path class="st0" d="M363.9,35.3v89.4"/>
<path class="st0" d="M365.9,9.8v140.3"/>
<path class="st0" d="M367.9,9.8v140.3"/>
<path class="st0" d="M369.9,9.8v140.3"/>
<path class="st0" d="M371.9,30.4v99.1"/>
<path class="st0" d="M373.9,30.4v99.1"/>
<path class="st0" d="M375.9,30.4v99.1"/>
<path class="st0" d="M377.9,43.3v73.4"/>
<path class="st0" d="M379.9,43.3v73.4"/>
<path class="st0" d="M381.9,52.2v55.6"/>
<path class="st0" d="M383.9,52.2v55.6"/>
<path class="st0" d="M385.9,57.5v44.9"/>
<path class="st0" d="M387.9,57.5v44.9"/>
<path class="st0" d="M389.9,57.5v44.9"/>
<path class="st0" d="M391.9,50V110"/>
<path class="st0" d="M393.9,50V110"/>
<path class="st0" d="M395.9,50V110"/>
<path class="st0" d="M397.9,48v64"/>
<path class="st0" d="M399.9,48v64"/>
<path class="st0" d="M401.9,48v64"/>
<path class="st0" d="M403.9,54.6v50.8"/>
<path class="st0" d="M405.9,54.6v50.8"/>
<path class="st0" d="M407.9,51V109"/>
<path class="st0" d="M409.9,51V109"/>
<path class="st0" d="M411.9,51V109"/>
<path class="st0" d="M413.9,44.1v71.8"/>
<path class="st0" d="M415.9,44.1v71.8"/>
<path class="st0" d="M417.9,44.1v71.8"/>
<path class="st0" d="M419.9,54.8v50.4"/>
<path class="st0" d="M421.9,54.8v50.4"/>
<path class="st0" d="M423.9,54.8v50.4"/>
<path class="st0" d="M425.9,33.1v93.9"/>
<path class="st0" d="M427.9,33.1v93.9"/>
<path class="st0" d="M429.9,33.1v93.9"/>
<path class="st0" d="M431.9,11.2v137.6"/>
<path class="st0" d="M434,11.2v137.6"/>
<path class="st0" d="M436,36.8v86.4"/>
<path class="st0" d="M438,36.8v86.4"/>
<path class="st0" d="M440,49.9v60.3"/>
<path class="st0" d="M442,49.9v60.3"/>
<path class="st0" d="M444,49.9v60.3"/>
<path class="st0" d="M446,54.6v50.8"/>
<path class="st0" d="M448,54.6v50.8"/>
<path class="st0" d="M450,54.6v50.8"/>
<path class="st0" d="M452,55.8v48.4"/>
<path class="st0" d="M454,55.8v48.4"/>
<path class="st0" d="M456,55.8v48.4"/>
<path class="st0" d="M458,42.9v74.2"/>
<path class="st0" d="M460,42V118"/>
<path class="st0" d="M462,42V118"/>
<path class="st0" d="M464,42V118"/>
<path class="st0" d="M466,45v70"/>
<path class="st0" d="M468,45v70"/>
<path class="st0" d="M470,45v70"/>
<path class="st0" d="M472,45.4v69.1"/>
<path class="st0" d="M474,45.4v69.1"/>
<path class="st0" d="M476,45.4v69.1"/>
<path class="st0" d="M478,45.2v69.6"/>
<path class="st0" d="M480,21.2v117.6"/>
<path class="st0" d="M482,21.2v117.6"/>
<path class="st0" d="M484,21.2v117.6"/>
<path class="st0" d="M486,9.2v141.6"/>
<path class="st0" d="M488,9.2v141.6"/>
<path class="st0" d="M490,9.2v141.6"/>
<path class="st0" d="M492,32.6v94.8"/>
<path class="st0" d="M494,32.6v94.8"/>
<path class="st0" d="M496,32.6v94.8"/>
<path class="st0" d="M498,34.8v90.5"/>
<path class="st0" d="M500,34.8v90.5"/>
<path class="st0" d="M502,41.6v76.9"/>
<path class="st0" d="M504,41.6v76.9"/>
<path class="st0" d="M506,47.6v64.8"/>
<path class="st0" d="M508,47.6v64.8"/>
<path class="st0" d="M510,47.6v64.8"/>
<path class="st0" d="M512,43.4v73.2"/>
<path class="st0" d="M514,43.4v73.2"/>
<path class="st0" d="M516,43.4v73.2"/>
<path class="st0" d="M518,46.2v67.6"/>
<path class="st0" d="M520,46.2v67.6"/>
<path class="st0" d="M522,47.4v65.3"/>
<path class="st0" d="M524,47.4v65.3"/>
<path class="st0" d="M526,51.1v57.9"/>
<path class="st0" d="M528.1,51.1v57.9"/>
<path class="st0" d="M530.1,51.1v57.9"/>
<path class="st0" d="M532.1,57.8v44.5"/>
<path class="st0" d="M534.1,57.8v44.5"/>
<path class="st0" d="M536.1,57.8v44.5"/>
<path class="st0" d="M538.1,58.6v42.9"/>
<path class="st0" d="M540.1,58.6v42.9"/>
<path class="st0" d="M542.1,24.9v110.3"/>
<path class="st0" d="M544.1,24.9v110.3"/>
<path class="st0" d="M546.1,24.9v110.3"/>
<path class="st0" d="M548.1,26.3v107.3"/>
<path class="st0" d="M550.1,26.3v107.3"/>
<path class="st0" d="M552.1,44.8v70.4"/>
<path class="st0" d="M554.1,44.8v70.4"/>
<path class="st0" d="M556.1,44.8v70.4"/>
<path class="st0" d="M558.1,53V107"/>
<path class="st0" d="M560.1,53V107"/>
<path class="st0" d="M562.1,57.6v44.9"/>
<path class="st0" d="M564.1,57.6v44.9"/>
<path class="st0" d="M566.1,57.6v44.9"/>
<path class="st0" d="M568.1,47.8v64.5"/>
<path class="st0" d="M570.1,47.8v64.5"/>
<path class="st0" d="M572.1,47.8v64.5"/>
<path class="st0" d="M574.1,36.9v86.1"/>
<path class="st0" d="M576.1,36.9v86.1"/>
<path class="st0" d="M578.1,43.9v72.2"/>
<path class="st0" d="M580.1,43.9v72.2"/>
<path class="st0" d="M582.1,43.9v72.2"/>
<path class="st0" d="M584.1,43.9v72.2"/>
<path class="st0" d="M586.1,43.9v72.2"/>
<path class="st0" d="M588.1,50.2v59.6"/>
<path class="st0" d="M590.1,50.2v59.6"/>
<path class="st0" d="M592.1,50.2v59.6"/>
<path class="st0" d="M594.1,50.4v59.2"/>
<path class="st0" d="M596.1,50.4v59.2"/>
<path class="st0" d="M598.1,22.4v115.2"/>
<path class="st0" d="M600.1,22.4v115.2"/>
<path class="st0" d="M602.1,15.7v128.7"/>
<path class="st0" d="M604.1,15.7v128.7"/>
<path class="st0" d="M606.1,15.7v128.7"/>
<path class="st0" d="M608.1,33.6v92.7"/>
<path class="st0" d="M610.1,33.6v92.7"/>
<path class="st0" d="M612.1,33.6v92.7"/>
<path class="st0" d="M614.1,41.5v77"/>
<path class="st0" d="M616.1,41.5v77"/>
<path class="st0" d="M618.1,47v66"/>
<path class="st0" d="M620.1,47v66"/>
<path class="st0" d="M622.1,44.1v71.9"/>
<path class="st0" d="M624.2,44.1v71.9"/>
<path class="st0" d="M626.2,44.1v71.9"/>
<path class="st0" d="M628.2,51.4v57.3"/>
<path class="st0" d="M630.2,51.4v57.3"/>
<path class="st0" d="M632.2,51.4v57.3"/>
<path class="st0" d="M634.2,55.4v49.2"/>
<path class="st0" d="M636.2,55.4v49.2"/>
<path class="st0" d="M638.2,51V109"/>
<path class="st0" d="M640.2,51V109"/>
<path class="st0" d="M642.2,44.7v70.5"/>
<path class="st0" d="M644.2,44.7v70.5"/>
<path class="st0" d="M646.2,44.7v70.5"/>
<path class="st0" d="M648.2,52.5v55"/>
<path class="st0" d="M650.2,52.5v55"/>
<path class="st0" d="M652.2,52.5v55"/>
<path class="st0" d="M654.2,41.8v76.4"/>
<path class="st0" d="M656.2,41.8v76.4"/>
<path class="st0" d="M658.2,4.6v150.8"/>
<path class="st0" d="M660.2,4.6v150.8"/>
<path class="st0" d="M662.2,38.9v82.3"/>
<path class="st0" d="M664.2,46.9v66.1"/>
<path class="st0" d="M666.2,46.9v66.1"/>
<path class="st0" d="M668.2,46.9v66.1"/>
<path class="st0" d="M670.2,52.5v55"/>
<path class="st0" d="M672.2,52.5v55"/>
<path class="st0" d="M674.2,52.5v55"/>
<path class="st0" d="M676.2,54.4v51.2"/>
<path class="st0" d="M678.2,54.4v51.2"/>
<path class="st0" d="M680.2,45V115"/>
<path class="st0" d="M682.2,45V115"/>
<path class="st0" d="M684.2,45V115"/>
<path class="st0" d="M686.2,39.3v81.4"/>
<path class="st0" d="M688.2,39.3v81.4"/>
<path class="st0" d="M690.2,48.8v62.4"/>
<path class="st0" d="M692.2,48.8v62.4"/>
<path class="st0" d="M694.2,48.8v62.4"/>
<path class="st0" d="M696.2,39.1v81.8"/>
<path class="st0" d="M698.2,39.1v81.8"/>
<path class="st0" d="M700.2,39.4v81.1"/>
<path class="st0" d="M702.2,39.4v81.1"/>
<path class="st0" d="M704.2,39.4v81.1"/>
<path class="st0" d="M706.2,46.2v67.5"/>
<path class="st0" d="M708.2,46.2v67.5"/>
<path class="st0" d="M710.2,10v140"/>
<path class="st0" d="M712.2,10v140"/>
<path class="st0" d="M714.2,10v140"/>
<path class="st0" d="M716.2,19.1v121.8"/>
<path class="st0" d="M718.2,19.1v121.8"/>
<path class="st0" d="M720.3,39.6v80.7"/>
<path class="st0" d="M722.3,39.6v80.7"/>
<path class="st0" d="M724.3,39.6v80.7"/>
<path class="st0" d="M726.3,40.4v79.2"/>
<path class="st0" d="M728.3,40.4v79.2"/>
<path class="st0" d="M730.3,40.4v79.2"/>
<path class="st0" d="M732.3,49.1v61.7"/>
<path class="st0" d="M734.3,49.1v61.7"/>
<path class="st0" d="M736.3,49v62"/>
<path class="st0" d="M738.3,49v62"/>
<path class="st0" d="M740.3,41.3v77.4"/>
<path class="st0" d="M742.3,41.3v77.4"/>
<path class="st0" d="M744.3,41.3v77.4"/>
<path class="st0" d="M746.3,48.8v62.3"/>
<path class="st0" d="M748.3,48.8v62.3"/>
<path class="st0" d="M750.3,48.8v62.3"/>
<path class="st0" d="M752.3,49.4v61.2"/>
<path class="st0" d="M754.3,49.4v61.2"/>
<path class="st0" d="M756.3,56.5v46.9"/>
<path class="st0" d="M758.3,56.5v46.9"/>
<path class="st0" d="M760.3,60.2v39.5"/>
<path class="st0" d="M762.3,60.2v39.5"/>
<path class="st0" d="M764.3,60.2v39.5"/>
<path class="st0" d="M766.3,40v80"/>
<path class="st0" d="M768.3,40v80"/>
<path class="st0" d="M770.3,40v80"/>
<path class="st0" d="M772.3,17.2v125.6"/>
<path class="st0" d="M774.3,17.2v125.6"/>
<path class="st0" d="M776.3,17.2v125.6"/>
<path class="st0" d="M778.3,35.6v88.9"/>
<path class="st0" d="M780.3,43.2v73.7"/>
<path class="st0" d="M782.3,43.2v73.7"/>
<path class="st0" d="M784.3,43.2v73.7"/>
<path class="st0" d="M786.3,51v58"/>
<path class="st0" d="M788.3,51v58"/>
<path class="st0" d="M790.3,51v58"/>
<path class="st0" d="M792.3,50.7v58.6"/>
<path class="st0" d="M794.3,50.7v58.6"/>
<path class="st0" d="M796.3,50.7v58.6"/>
<path class="st0" d="M798.3,36.6v86.8"/>
<path class="st0" d="M800.3,36.6v86.8"/>
<path class="st0" d="M802.3,44.1v71.8"/>
<path class="st0" d="M804.3,44.1v71.8"/>
<path class="st0" d="M806.3,52.8v54.4"/>
<path class="st0" d="M808.3,52.8v54.4"/>
<path class="st0" d="M810.3,52.8v54.4"/>
<path class="st0" d="M812.3,56.9v46.1"/>
<path class="st0" d="M814.3,56.9v46.1"/>
<path class="st0" d="M816.4,56.9v46.1"/>
<path class="st0" d="M818.4,57.9v44.2"/>
<path class="st0" d="M820.4,57.9v44.2"/>
<path class="st0" d="M822.4,35.6v88.8"/>
<path class="st0" d="M824.4,35.6v88.8"/>
<path class="st0" d="M826.4,10.8v138.4"/>
<path class="st0" d="M828.4,10.8v138.4"/>
<path class="st0" d="M830.4,10.8v138.4"/>
<path class="st0" d="M832.4,33V127"/>
<path class="st0" d="M834.4,33V127"/>
<path class="st0" d="M836.4,33V127"/>
<path class="st0" d="M838.4,45.3v69.3"/>
<path class="st0" d="M840.4,45.3v69.3"/>
<path class="st0" d="M842.4,56.2v47.7"/>
<path class="st0" d="M844.4,56.2v47.7"/>
<path class="st0" d="M846.4,56.2v47.7"/>
<path class="st0" d="M848.4,56.7v46.6"/>
<path class="st0" d="M850.4,56.7v46.6"/>
<path class="st0" d="M852.4,51.1v57.8"/>
<path class="st0" d="M854.4,51.1v57.8"/>
<path class="st0" d="M856.4,51.1v57.8"/>
<path class="st0" d="M858.4,46.8v66.3"/>
<path class="st0" d="M860.4,46.8v66.3"/>
<path class="st0" d="M862.4,56V104"/>
<path class="st0" d="M864.4,56V104"/>
<path class="st0" d="M866.4,56V104"/>
<path class="st0" d="M868.4,46.1v67.9"/>
<path class="st0" d="M870.4,46.1v67.9"/>
<path class="st0" d="M872.4,46.1v67.9"/>
<path class="st0" d="M874.4,49V111"/>
<path class="st0" d="M876.4,49V111"/>
<path class="st0" d="M878.4,55.2v49.6"/>
<path class="st0" d="M880.4,55.2v49.6"/>
<path class="st0" d="M882.4,30.9v98.2"/>
<path class="st0" d="M884.4,30.9v98.2"/>
<path class="st0" d="M886.4,30.9v98.2"/>
<path class="st0" d="M888.4,11v138"/>
<path class="st0" d="M890.4,11v138"/>
<path class="st0" d="M892.4,11v138"/>
<path class="st0" d="M894.4,38.1v83.9"/>
<path class="st0" d="M896.4,38.1v83.9"/>
<path class="st0" d="M898.4,54.9v50.1"/>
<path class="st0" d="M900.4,54.9v50.1"/>
<path class="st0" d="M902.4,59.6v40.9"/>
<path class="st0" d="M904.4,59.6v40.9"/>
<path class="st0" d="M906.4,59.6v40.9"/>
<path class="st0" d="M908.4,56.9v46.3"/>
<path class="st0" d="M910.4,56.9v46.3"/>
<path class="st0" d="M912.5,56.9v46.3"/>
<path class="st0" d="M914.5,40.1v79.8"/>
<path class="st0" d="M916.5,40.1v79.8"/>
<path class="st0" d="M918.5,49.8v60.4"/>
<path class="st0" d="M920.5,49.8v60.4"/>
<path class="st0" d="M922.5,46.6v66.8"/>
<path class="st0" d="M924.5,46.6v66.8"/>
<path class="st0" d="M926.5,46.6v66.8"/>
<path class="st0" d="M928.5,45.8v68.3"/>
<path class="st0" d="M930.5,45.8v68.3"/>
<path class="st0" d="M932.5,45.8v68.3"/>
<path class="st0" d="M934.5,51.3v57.5"/>
<path class="st0" d="M936.5,51.3v57.5"/>
<path class="st0" d="M938.5,18.6v122.7"/>
<path class="st0" d="M940.5,18.6v122.7"/>
<path class="st0" d="M942.5,13.4v133.1"/>
<path class="st0" d="M944.5,13.4v133.1"/>
<path class="st0" d="M946.5,38V122"/>
<path class="st0" d="M948.5,38V122"/>
<path class="st0" d="M950.5,38V122"/>
<path class="st0" d="M952.5,39.4v81.2"/>
<path class="st0" d="M954.5,39.4v81.2"/>
<path class="st0" d="M956.5,39.4v81.2"/>
<path class="st0" d="M958.5,48.9v62.2"/>
<path class="st0" d="M960.5,48.9v62.2"/>
<path class="st0" d="M962.5,53.5v53"/>
<path class="st0" d="M964.5,53.5v53"/>
<path class="st0" d="M966.5,37V123"/>
<path class="st0" d="M968.5,37V123"/>
<path class="st0" d="M970.5,37V123"/>
<path class="st0" d="M972.5,47.8v64.5"/>
<path class="st0" d="M974.5,47.8v64.5"/>
<path class="st0" d="M976.5,47.8v64.5"/>
<path class="st0" d="M978.5,52.6v54.8"/>
<path class="st0" d="M980.5,52.6v54.8"/>
<path class="st0" d="M982.5,55.5v49"/>
<path class="st0" d="M984.5,55.5v49"/>
<path class="st0" d="M986.5,55.5v49"/>
<path class="st0" d="M988.5,60.2v39.7"/>
<path class="st0" d="M990.5,60.2v39.7"/>
<path class="st0" d="M992.5,62.9v34.2"/>
<path class="st0" d="M994.5,62.9v34.2"/>
<path class="st0" d="M996.5,62.9v34.2"/>
<path class="st0" d="M998.5,22.6v114.8"/>
<path class="st0" d="M1000.5,22.6v114.8"/>
<path class="st0" d="M1002.5,25.4v109.1"/>
<path class="st0" d="M1004.5,25.4v109.1"/>
<path class="st0" d="M1006.5,45.9v68.2"/>
<path class="st0" d="M1008.6,45.9v68.2"/>
<path class="st0" d="M1010.6,56.4v47.2"/>
<path class="st0" d="M1012.6,56.4v47.2"/>
<path class="st0" d="M1014.6,56.4v47.2"/>
<path class="st0" d="M1016.6,59.4v41.1"/>
<path class="st0" d="M1018.6,45.1v69.8"/>
<path class="st0" d="M1020.6,45.1v69.8"/>
<path class="st0" d="M1022.6,45.1v69.8"/>
<path class="st0" d="M1024.6,22.3v115.4"/>
<path class="st0" d="M1026.6,22.3v115.4"/>
<path class="st0" d="M1028.6,22.3v115.4"/>
<path class="st0" d="M1030.6,32.3v95.4"/>
<path class="st0" d="M1032.6,32.3v95.4"/>
<path class="st0" d="M1034.6,48.5v63"/>
<path class="st0" d="M1036.6,48.5v63"/>
<path class="st0" d="M1038.6,44.6v70.7"/>
<path class="st0" d="M1040.6,44.6v70.7"/>
<path class="st0" d="M1042.6,44.6v70.7"/>
<path class="st0" d="M1044.6,55.9v48.2"/>
<path class="st0" d="M1046.6,55.9v48.2"/>
<path class="st0" d="M1048.6,55.9v48.2"/>
<path class="st0" d="M1050.6,15.9v128.2"/>
<path class="st0" d="M1052.6,15.9v128.2"/>
<path class="st0" d="M1054.6,15.9v128.2"/>
<path class="st0" d="M1056.6,6.5v147"/>
<path class="st0" d="M1058.6,36.5v87"/>
<path class="st0" d="M1060.6,36.5v87"/>
<path class="st0" d="M1062.6,36.5v87"/>
<path class="st0" d="M1064.6,33.5v93"/>
<path class="st0" d="M1066.6,33.5v93"/>
<path class="st0" d="M1068.6,33.5v93"/>
<path class="st0" d="M1070.6,33.6v92.7"/>
<path class="st0" d="M1072.6,33.6v92.7"/>
<path class="st0" d="M1074.6,33.6v92.7"/>
<path class="st0" d="M1076.6,43.5v73"/>
<path class="st0" d="M1078.6,46.5v67"/>
<path class="st0" d="M1080.6,46.5v67"/>
<path class="st0" d="M1082.6,46.5v67"/>
<path class="st0" d="M1084.6,48.7v62.5"/>
<path class="st0" d="M1086.6,48.7v62.5"/>
<path class="st0" d="M1088.6,48.7v62.5"/>
<path class="st0" d="M1090.6,51V109"/>
<path class="st0" d="M1092.6,51V109"/>
<path class="st0" d="M1094.6,51V109"/>
<path class="st0" d="M1096.6,25.8v108.3"/>
<path class="st0" d="M1098.6,25.8v108.3"/>
<path class="st0" d="M1100.6,37.5v85.1"/>
<path class="st0" d="M1102.6,37.5v85.1"/>
<path class="st0" d="M1104.7,40v80"/>
<path class="st0" d="M1106.7,40v80"/>
<path class="st0" d="M1108.7,40v80"/>
<path class="st0" d="M1110.7,6.2v147.5"/>
<path class="st0" d="M1112.7,6.2v147.5"/>
<path class="st0" d="M1114.7,6.2v147.5"/>
<path class="st0" d="M1116.7,31.6v96.9"/>
<path class="st0" d="M1118.7,32.1v95.9"/>
<path class="st0" d="M1120.7,32.1v95.9"/>
<path class="st0" d="M1122.7,28.5v103"/>
<path class="st0" d="M1124.7,28.5v103"/>
<path class="st0" d="M1126.7,28.5v103"/>
<path class="st0" d="M1128.7,42.2v75.6"/>
<path class="st0" d="M1130.7,42.2v75.6"/>
<path class="st0" d="M1132.7,42.2v75.6"/>
<path class="st0" d="M1134.7,42.5v75.1"/>
<path class="st0" d="M1136.7,42.5v75.1"/>
<path class="st0" d="M1138.7,33.7v92.6"/>
<path class="st0" d="M1140.7,33.7v92.6"/>
<path class="st0" d="M1142.7,33.7v92.6"/>
<path class="st0" d="M1144.7,40.7v78.7"/>
<path class="st0" d="M1146.7,40.7v78.7"/>
<path class="st0" d="M1148.7,35V125"/>
<path class="st0" d="M1150.7,35V125"/>
<path class="st0" d="M1152.7,35V125"/>
<path class="st0" d="M1154.7,36.8v86.3"/>
<path class="st0" d="M1156.7,36.8v86.3"/>
<path class="st0" d="M1158.7,38.3v83.4"/>
<path class="st0" d="M1160.7,38.3v83.4"/>
<path class="st0" d="M1162.7,2.2v155.6"/>
<path class="st0" d="M1164.7,2.2v155.6"/>
<path class="st0" d="M1166.7,2.2v155.6"/>
<path class="st0" d="M1168.7,19V141"/>
<path class="st0" d="M1170.7,19V141"/>
<path class="st0" d="M1172.7,38.8v82.4"/>
<path class="st0" d="M1174.7,38.8v82.4"/>
<path class="st0" d="M1176.7,38.8v82.4"/>
<path class="st0" d="M1178.7,35.2v89.6"/>
<path class="st0" d="M1180.7,35.2v89.6"/>
<path class="st0" d="M1182.7,42v76"/>
<path class="st0" d="M1184.7,47.4v65.1"/>
<path class="st0" d="M1186.7,47.4v65.1"/>
<path class="st0" d="M1188.7,47.4v65.1"/>
<path class="st0" d="M1190.7,42.5v74.9"/>
<path class="st0" d="M1192.7,42.5v74.9"/>
<path class="st0" d="M1194.7,42.5v74.9"/>
<path class="st0" d="M1196.7,42.6v74.8"/>
<path class="st0" d="M1198.7,42.4v75.2"/>
<path class="st0" d="M1200.8,42.4v75.2"/>
<path class="st0" d="M1202.8,49.4v61.2"/>
<path class="st0" d="M1204.8,49.4v61.2"/>
<path class="st0" d="M1206.8,49.4v61.2"/>
<path class="st0" d="M1208.8,47.2v65.6"/>
<path class="st0" d="M1210.8,47.2v65.6"/>
<path class="st0" d="M1212.8,47.2v65.6"/>
<path class="st0" d="M1214.8,36.2v87.5"/>
<path class="st0" d="M1216.8,36.2v87.5"/>
<path class="st0" d="M1218.8,11.3v137.4"/>
<path class="st0" d="M1220.8,11.3v137.4"/>
<path class="st0" d="M1222.8,34.6v90.8"/>
<path class="st0" d="M1224.8,34.6v90.8"/>
<path class="st0" d="M1226.8,46.1v67.8"/>
<path class="st0" d="M1228.8,46.1v67.8"/>
<path class="st0" d="M1230.8,46.1v67.8"/>
<path class="st0" d="M1232.8,54V106"/>
<path class="st0" d="M1234.8,54V106"/>
<path class="st0" d="M1236.8,54V106"/>
<path class="st0" d="M1238.8,43.1v73.8"/>
<path class="st0" d="M1240.8,35.7v88.5"/>
<path class="st0" d="M1242.8,35.7v88.5"/>
<path class="st0" d="M1244.8,39.9v80.1"/>
<path class="st0" d="M1246.8,39.9v80.1"/>
<path class="st0" d="M1248.8,39.9v80.1"/>
<path class="st0" d="M1250.8,42.6v74.9"/>
<path class="st0" d="M1252.8,42.6v74.9"/>
<path class="st0" d="M1254.8,42.6v74.9"/>
<path class="st0" d="M1256.8,45.2v69.6"/>
<path class="st0" d="M1258.8,50.6v58.7"/>
<path class="st0" d="M1260.8,50.6v58.7"/>
<path class="st0" d="M1262.8,50.6v58.7"/>
<path class="st0" d="M1264.8,29.4v101.2"/>
<path class="st0" d="M1266.8,29.4v101.2"/>
<path class="st0" d="M1268.8,4.2v151.6"/>
<path class="st0" d="M1270.8,4.2v151.6"/>
<path class="st0" d="M1272.8,4.2v151.6"/>
<path class="st0" d="M1274.8,28.2v103.5"/>
<path class="st0" d="M1276.8,28.2v103.5"/>
<path class="st0" d="M1278.8,41.4v77.2"/>
<path class="st0" d="M1280.8,41.4v77.2"/>
<path class="st0" d="M1282.8,53.6v52.7"/>
<path class="st0" d="M1284.8,55.2v49.6"/>
<path class="st0" d="M1286.8,55.2v49.6"/>
<path class="st0" d="M1288.8,55.2v49.6"/>
<path class="st0" d="M1290.8,44.3v71.4"/>
<path class="st0" d="M1292.8,44.3v71.4"/>
<path class="st0" d="M1294.8,44.3v71.4"/>
<path class="st0" d="M1296.9,47.1v65.8"/>
<path class="st0" d="M1298.9,50.2v59.7"/>
<path class="st0" d="M1300.9,50.2v59.7"/>
<path class="st0" d="M1302.9,47.2v65.6"/>
<path class="st0" d="M1304.9,47.2v65.6"/>
<path class="st0" d="M1306.9,46.2v67.7"/>
<path class="st0" d="M1308.9,46.2v67.7"/>
<path class="st0" d="M1310.9,46.2v67.7"/>
<path class="st0" d="M1312.9,54.7v50.5"/>
<path class="st0" d="M1314.9,54.7v50.5"/>
<path class="st0" d="M1316.9,54.7v50.5"/>
<path class="st0" d="M1318.9,25.9v108.1"/>
<path class="st0" d="M1320.9,10.8v138.5"/>
<path class="st0" d="M1322.9,10.8v138.5"/>
<path class="st0" d="M1324.9,10.8v138.5"/>
<path class="st0" d="M1326.9,40.4v79.1"/>
<path class="st0" d="M1328.9,40.4v79.1"/>
<path class="st0" d="M1330.9,48v64"/>
<path class="st0" d="M1332.9,48v64"/>
<path class="st0" d="M1334.9,48v64"/>
<path class="st0" d="M1336.9,43.9v72.1"/>
<path class="st0" d="M1338.9,46.3v67.4"/>
<path class="st0" d="M1340.9,46.3v67.4"/>
<path class="st0" d="M1342.9,46.3v67.4"/>
<path class="st0" d="M1344.9,39.4v81.2"/>
<path class="st0" d="M1346.9,39.4v81.2"/>
<path class="st0" d="M1348.9,40V120"/>
<path class="st0" d="M1350.9,40V120"/>
<path class="st0" d="M1352.9,40V120"/>
<path class="st0" d="M1354.9,36.5v87"/>
<path class="st0" d="M1356.9,36.5v87"/>
<path class="st0" d="M1358.9,41.9v76.3"/>
<path class="st0" d="M1360.9,41.9v76.3"/>
<path class="st0" d="M1362.9,43.6v72.8"/>
<path class="st0" d="M1364.9,43.6v72.8"/>
<path class="st0" d="M1366.9,43.6v72.8"/>
<path class="st0" d="M1368.9,18.8v122.4"/>
<path class="st0" d="M1370.9,18.8v122.4"/>
<path class="st0" d="M1372.9,11.8v136.5"/>
<path class="st0" d="M1374.9,11.8v136.5"/>
<path class="st0" d="M1376.9,11.8v136.5"/>
<path class="st0" d="M1378.9,33V127"/>
<path class="st0" d="M1380.9,40.4v79.1"/>
<path class="st0" d="M1382.9,40.4v79.1"/>
<path class="st0" d="M1384.9,40.4v79.1"/>
<path class="st0" d="M1386.9,44.3v71.4"/>
<path class="st0" d="M1388.9,44.3v71.4"/>
<path class="st0" d="M1390.9,44.3v71.4"/>
<path class="st0" d="M1393,48.4v63.2"/>
<path class="st0" d="M1395,48.4v63.2"/>
<path class="st0" d="M1397,42.2v75.6"/>
<path class="st0" d="M1399,42v76"/>
<path class="st0" d="M1401,42v76"/>
<path class="st0" d="M1403,42v76"/>
<path class="st0" d="M1405,47V113"/>
<path class="st0" d="M1407,47V113"/>
<path class="st0" d="M1409,47V113"/>
<path class="st0" d="M1411,51.4v57.3"/>
<path class="st0" d="M1413,51.4v57.3"/>
<path class="st0" d="M1415,53.3v53.4"/>
<path class="st0" d="M1417,53.3v53.4"/>
<path class="st0" d="M1419,51.8v56.4"/>
<path class="st0" d="M1421,51.8v56.4"/>
<path class="st0" d="M1423,22.4v115.3"/>
<path class="st0" d="M1425,22.4v115.3"/>
<path class="st0" d="M1427,22.4v115.3"/>
<path class="st0" d="M1429,24.4v111.3"/>
<path class="st0" d="M1431,24.4v111.3"/>
<path class="st0" d="M1433,24.4v111.3"/>
<path class="st0" d="M1435,41.2v77.6"/>
<path class="st0" d="M1437,41.2v77.6"/>
<path class="st0" d="M1439,44.2v71.7"/>
<path class="st0" d="M1441,49.7v60.7"/>
<path class="st0" d="M1443,49.7v60.7"/>
<path class="st0" d="M1445,49.7v60.7"/>
<path class="st0" d="M1447,44.2v71.5"/>
<path class="st0" d="M1449,44.2v71.5"/>
<path class="st0" d="M1451,44.2v71.5"/>
<path class="st0" d="M1453,39.2v81.6"/>
<path class="st0" d="M1455,39.2v81.6"/>
<path class="st0" d="M1457,39.2v81.6"/>
<path class="st0" d="M1459,36.4v87.1"/>
<path class="st0" d="M1461,36.4v87.1"/>
<path class="st0" d="M1463,36.4v87.1"/>
<path class="st0" d="M1465,38.1v83.8"/>
<path class="st0" d="M1467,38.1v83.8"/>
<path class="st0" d="M1469,38.1v83.8"/>
<path class="st0" d="M1471,43.8v72.5"/>
<path class="st0" d="M1473,43.8v72.5"/>
<path class="st0" d="M1475,43.8v72.5"/>
<path class="st0" d="M1477,10.6v138.7"/>
<path class="st0" d="M1479,8.4v143.2"/>
<path class="st0" d="M1481,8.4v143.2"/>
<path class="st0" d="M1483,33.9v92.3"/>
<path class="st0" d="M1485,33.9v92.3"/>
<path class="st0" d="M1487,44.3v71.5"/>
<path class="st0" d="M1489.1,44.3v71.5"/>
<path class="st0" d="M1491.1,44.3v71.5"/>
<path class="st0" d="M1493.1,47.2v65.6"/>
<path class="st0" d="M1495.1,47.2v65.6"/>
<path class="st0" d="M1497.1,47.2v65.6"/>
<path class="st0" d="M1499.1,47.8v64.4"/>
<path class="st0" d="M1501.1,47.8v64.4"/>
<path class="st0" d="M1503.1,47.8v64.4"/>
<path class="st0" d="M1505.1,52.5v55"/>
<path class="st0" d="M1507.1,52.5v55"/>
<path class="st0" d="M1509.1,52.5v55"/>
<path class="st0" d="M1511.1,49.5v61"/>
<path class="st0" d="M1513.1,49.5v61"/>
<path class="st0" d="M1515.1,49.5v61"/>
<path class="st0" d="M1517.1,46.1v67.8"/>
<path class="st0" d="M1519.1,52.5v55"/>
<path class="st0" d="M1521.1,52.5v55"/>
<path class="st0" d="M1523.1,39.8v80.4"/>
<path class="st0" d="M1525.1,39.8v80.4"/>
<path class="st0" d="M1527.1,39.8v80.4"/>
<path class="st0" d="M1529.1,5.2v149.6"/>
<path class="st0" d="M1531.1,5.2v149.6"/>
<path class="st0" d="M1533.1,5.2v149.6"/>
<path class="st0" d="M1535.1,42.1v75.8"/>
<path class="st0" d="M1537.1,42.1v75.8"/>
<path class="st0" d="M1539.1,46V114"/>
<path class="st0" d="M1541.1,52.6v54.8"/>
<path class="st0" d="M1543.1,52.6v54.8"/>
<path class="st0" d="M1545.1,52.6v54.8"/>
<path class="st0" d="M1547.1,52.1v55.8"/>
<path class="st0" d="M1549.1,52.1v55.8"/>
<path class="st0" d="M1551.1,52.1v55.8"/>
<path class="st0" d="M1553.1,45.4v69.2"/>
<path class="st0" d="M1555.1,45.4v69.2"/>
<path class="st0" d="M1557.1,45.4v69.2"/>
<path class="st0" d="M1559.1,42V118"/>
<path class="st0" d="M1561.1,52.2v55.5"/>
<path class="st0" d="M1563.1,52.2v55.5"/>
<path class="st0" d="M1565.1,44.9v70.2"/>
<path class="st0" d="M1567.1,44.9v70.2"/>
<path class="st0" d="M1569.1,46.8v66.4"/>
<path class="st0" d="M1571.1,46.8v66.4"/>
<path class="st0" d="M1573.1,46.8v66.4"/>
<path class="st0" d="M1575.1,49.1v61.7"/>
<path class="st0" d="M1577.1,49.1v61.7"/>
<path class="st0" d="M1579.1,20.8v118.4"/>
<path class="st0" d="M1581.1,20.8v118.4"/>
<path class="st0" d="M1583.1,37.2v85.7"/>
<path class="st0" d="M1585.2,37.2v85.7"/>
<path class="st0" d="M1587.2,37.2v85.7"/>
<path class="st0" d="M1589.2,43.5v73"/>
<path class="st0" d="M1591.2,43.5v73"/>
<path class="st0" d="M1593.2,43.5v73"/>
<path class="st0" d="M1595.2,50.4v59.1"/>
<path class="st0" d="M1597.2,50.4v59.1"/>
<path class="st0" d="M1599.2,49.6v60.8"/>
<path class="st0" d="M1601.2,45.3v69.3"/>
<path class="st0" d="M1603.2,45.3v69.3"/>
<path class="st0" d="M1605.2,45.3v69.3"/>
<path class="st0" d="M1607.2,49.7v60.6"/>
<path class="st0" d="M1609.2,49.7v60.6"/>
<path class="st0" d="M1611.2,49.7v60.6"/>
<path class="st0" d="M1613.2,48.3v63.3"/>
<path class="st0" d="M1615.2,48.3v63.3"/>
<path class="st0" d="M1617.2,48.3v63.3"/>
<path class="st0" d="M1619.2,55.7v48.6"/>
<path class="st0" d="M1621.2,55.9v48.1"/>
<path class="st0" d="M1623.2,55.9v48.1"/>
<path class="st0" d="M1625.2,34V126"/>
<path class="st0" d="M1627.2,34V126"/>
<path class="st0" d="M1629.2,34V126"/>
<path class="st0" d="M1631.2,22.1v115.8"/>
<path class="st0" d="M1633.2,22.1v115.8"/>
<path class="st0" d="M1635.2,22.1v115.8"/>
<path class="st0" d="M1637.2,37V123"/>
<path class="st0" d="M1639.2,45.3v69.5"/>
<path class="st0" d="M1641.2,45.3v69.5"/>
<path class="st0" d="M1643.2,49.7v60.6"/>
<path class="st0" d="M1645.2,49.7v60.6"/>
<path class="st0" d="M1647.2,49.5v61"/>
<path class="st0" d="M1649.2,49.5v61"/>
<path class="st0" d="M1651.2,49.5v61"/>
<path class="st0" d="M1653.2,36.8v86.4"/>
<path class="st0" d="M1655.2,36.8v86.4"/>
<path class="st0" d="M1657.2,36.8v86.4"/>
<path class="st0" d="M1659.2,39.4v81.3"/>
<path class="st0" d="M1661.2,42.4v75.1"/>
<path class="st0" d="M1663.2,42.4v75.1"/>
<path class="st0" d="M1665.2,47.1v65.9"/>
<path class="st0" d="M1667.2,47.1v65.9"/>
<path class="st0" d="M1669.2,47.1v65.9"/>
<path class="st0" d="M1671.2,53.9v52.3"/>
<path class="st0" d="M1673.2,53.9v52.3"/>
<path class="st0" d="M1675.2,53.9v52.3"/>
<path class="st0" d="M1677.2,31.7v96.7"/>
<path class="st0" d="M1679.2,7.2v145.6"/>
<path class="st0" d="M1681.3,7.2v145.6"/>
<path class="st0" d="M1683.3,7.2v145.6"/>
<path class="st0" d="M1685.3,33.7v92.5"/>
<path class="st0" d="M1687.3,33.7v92.5"/>
<path class="st0" d="M1689.3,45.1v69.8"/>
<path class="st0" d="M1691.3,45.1v69.8"/>
<path class="st0" d="M1693.3,45.1v69.8"/>
<path class="st0" d="M1695.3,51.8v56.4"/>
<path class="st0" d="M1697.3,51.8v56.4"/>
<path class="st0" d="M1699.3,51.2v57.7"/>
<path class="st0" d="M1701.3,43.4v73.2"/>
<path class="st0" d="M1703.3,43.4v73.2"/>
<path class="st0" d="M1705.3,43.6v72.8"/>
<path class="st0" d="M1707.3,43.6v72.8"/>
<path class="st0" d="M1709.3,43.6v72.8"/>
<path class="st0" d="M1711.3,54.7v50.5"/>
<path class="st0" d="M1713.3,54.7v50.5"/>
<path class="st0" d="M1715.3,54.7v50.5"/>
<path class="st0" d="M1717.3,48.2v63.6"/>
<path class="st0" d="M1719.3,46V114"/>
<path class="st0" d="M1721.3,46V114"/>
<path class="st0" d="M1723.3,53.5v52.9"/>
<path class="st0" d="M1725.3,23.6v112.7"/>
<path class="st0" d="M1727.3,23.6v112.7"/>
<path class="st0" d="M1729.3,23.6v112.7"/>
<path class="st0" d="M1731.3,15.4v129.3"/>
<path class="st0" d="M1733.3,15.4v129.3"/>
<path class="st0" d="M1735.3,15.4v129.3"/>
<path class="st0" d="M1737.3,41.5v76.9"/>
<path class="st0" d="M1739.3,55.6v48.8"/>
<path class="st0" d="M1741.3,63.3v33.5"/>
<path class="st0" d="M1743.3,63.3v33.5"/>
<path class="st0" d="M1745.3,63.3v33.5"/>
<path class="st0" d="M1747.3,58.4v43.2"/>
<path class="st0" d="M1749.3,58.4v43.2"/>
<path class="st0" d="M1751.3,58.4v43.2"/>
<path class="st0" d="M1753.3,44.9v70.2"/>
<path class="st0" d="M1755.3,44.9v70.2"/>
<path class="st0" d="M1757.3,44.9v70.2"/>
<path class="st0" d="M1759.3,48.3v63.5"/>
<path class="st0" d="M1761.3,44.5v70.9"/>
<path class="st0" d="M1763.3,44.5v70.9"/>
<path class="st0" d="M1765.3,46.4v67.1"/>
<path class="st0" d="M1767.3,46.4v67.1"/>
<path class="st0" d="M1769.3,46.4v67.1"/>
<path class="st0" d="M1771.3,52.3v55.4"/>
<path class="st0" d="M1773.3,52.3v55.4"/>
<path class="st0" d="M1775.3,52.3v55.4"/>
<path class="st0" d="M1777.4,16.9v126.1"/>
<path class="st0" d="M1779.4,6.5v147"/>
<path class="st0" d="M1781.4,40.8v78.3"/>
<path class="st0" d="M1783.4,40.8v78.3"/>
<path class="st0" d="M1785.4,40.8v78.3"/>
<path class="st0" d="M1787.4,42.6v74.9"/>
<path class="st0" d="M1789.4,42.6v74.9"/>
<path class="st0" d="M1791.4,42.6v74.9"/>
<path class="st0" d="M1793.4,49.8v60.4"/>
<path class="st0" d="M1795.4,49.8v60.4"/>
<path class="st0" d="M1797.4,49.8v60.4"/>
<path class="st0" d="M1799.4,41.7v76.5"/>
<path class="st0" d="M1801.4,41.7v76.5"/>
<path class="st0" d="M1803.4,47.3v65.4"/>
<path class="st0" d="M1805.4,46.2v67.5"/>
<path class="st0" d="M1807.4,46.2v67.5"/>
<path class="st0" d="M1809.4,55.6v48.8"/>
<path class="st0" d="M1811.4,55.6v48.8"/>
<path class="st0" d="M1813.4,55.6v48.8"/>
<path class="st0" d="M1815.4,58.3v43.4"/>
<path class="st0" d="M1817.4,58.3v43.4"/>
<path class="st0" d="M1819.4,14.8v130.5"/>
<path class="st0" d="M1821.4,14.8v130.5"/>
<path class="st0" d="M1823.4,27.4v105.2"/>
<path class="st0" d="M1825.4,27.4v105.2"/>
<path class="st0" d="M1827.4,27.4v105.2"/>
<path class="st0" d="M1829.4,44.1v71.7"/>
<path class="st0" d="M1831.4,44.1v71.7"/>
<path class="st0" d="M1833.4,44.1v71.7"/>
<path class="st0" d="M1835.4,40.9v78.3"/>
<path class="st0" d="M1837.4,40.9v78.3"/>
<path class="st0" d="M1839.4,49.4v61.2"/>
<path class="st0" d="M1841.4,33.8v92.5"/>
<path class="st0" d="M1843.4,33.8v92.5"/>
<path class="st0" d="M1845.4,33.8v92.5"/>
<path class="st0" d="M1847.4,33V127"/>
<path class="st0" d="M1849.4,33V127"/>
<path class="st0" d="M1851.4,33V127"/>
<path class="st0" d="M1853.4,42.3v75.4"/>
<path class="st0" d="M1855.4,42.3v75.4"/>
<path class="st0" d="M1857.4,42.3v75.4"/>
<path class="st0" d="M1859.4,40.3v79.4"/>
<path class="st0" d="M1861.4,40.3v79.4"/>
<path class="st0" d="M1863.4,40.3v79.4"/>
<path class="st0" d="M1865.4,52.5v55"/>
<path class="st0" d="M1867.4,52.5v55"/>
<path class="st0" d="M1869.4,52.5v55"/>
<path class="st0" d="M1871.4,10.3v139.4"/>
<path class="st0" d="M1873.5,10.3v139.4"/>
<path class="st0" d="M1875.5,10.3v139.4"/>
<path class="st0" d="M1877.5,15.4v129.1"/>
<path class="st0" d="M1879.5,49.7v60.6"/>
<path class="st0" d="M1881.5,49.7v60.6"/>
<path class="st0" d="M1883.5,38.4v83.2"/>
<path class="st0" d="M1885.5,38.4v83.2"/>
<path class="st0" d="M1887.5,41.9v76.2"/>
<path class="st0" d="M1889.5,41.9v76.2"/>
<path class="st0" d="M1891.5,41.9v76.2"/>
<path class="st0" d="M1893.5,56.1v47.8"/>
<path class="st0" d="M1895.5,56.1v47.8"/>
<path class="st0" d="M1897.5,56.1v47.8"/>
<path class="st0" d="M1899.5,53.8v52.4"/>
<path class="st0" d="M1901.5,65.8v28.3"/>
<path class="st0" d="M1903.5,61.8v36.4"/>
<path class="st0" d="M1905.5,61.8v36.4"/>
<path class="st0" d="M1907.5,61.8v36.4"/>
<path class="st0" d="M1909.5,37V123"/>
<path class="st0" d="M1911.5,37V123"/>
<path class="st0" d="M1913.5,37V123"/>
<path class="st0" d="M1915.5,51v58"/>
<path class="st0" d="M1917.5,51v58"/>
</svg>
